<svg width="72" height="24" viewBox="0 0 72 24" fill="none" xmlns="http://www.w3.org/2000/svg">
<rect width="72.0001" height="24" rx="4" fill="#1E2230"/>
<path d="M18.0608 12.2999C18.0473 10.7869 19.2878 10.0509 19.3445 10.0166C18.642 8.98244 17.553 8.84114 17.1703 8.82988C16.2558 8.73271 15.3686 9.3824 14.9027 9.3824C14.4275 9.3824 13.71 8.83927 12.9368 8.85523C11.9418 8.87072 11.0109 9.45234 10.5004 10.3555C9.44673 12.1971 10.2325 14.9034 11.242 16.3919C11.7469 17.1209 12.337 17.9349 13.1093 17.9063C13.8649 17.8748 14.1471 17.42 15.0589 17.42C15.9624 17.42 16.2274 17.9063 17.015 17.888C17.826 17.8748 18.3365 17.1557 18.8238 16.4201C19.4073 15.5845 19.6417 14.7616 19.651 14.7193C19.6319 14.7128 18.0761 14.1133 18.0608 12.2999Z" fill="white"/>
<path d="M16.5729 7.85065C16.9792 7.33756 17.2573 6.63952 17.1801 5.93115C16.5919 5.95744 15.8563 6.3419 15.4328 6.84372C15.058 7.28593 14.7232 8.01072 14.8097 8.69234C15.4704 8.74209 16.1488 8.35575 16.5729 7.85065Z" fill="white"/>
<path d="M29.2737 17.1632H28.2178L27.6394 15.3282H25.6288L25.0778 17.1632H24.0498L26.0417 10.916H27.272L29.2737 17.1632ZM27.465 14.5583L26.9419 12.927C26.8866 12.7604 26.7829 12.368 26.6299 11.7502H26.6113C26.5504 12.0159 26.4523 12.4083 26.3175 12.927L25.8037 14.5583H27.465Z" fill="white"/>
<path d="M34.3974 14.8568C34.3974 15.6229 34.1923 16.2285 33.7822 16.673C33.4149 17.0687 32.9588 17.2664 32.4143 17.2664C31.8266 17.2664 31.4044 17.0532 31.1472 16.627H31.1286V19H30.1373V14.1428C30.1373 13.6612 30.1248 13.1668 30.1006 12.6599H30.9724L31.0277 13.3739H31.0463C31.3769 12.8359 31.8786 12.5674 32.5519 12.5674C33.0783 12.5674 33.5177 12.7772 33.8692 13.1974C34.2216 13.618 34.3974 14.171 34.3974 14.8568ZM33.3875 14.8934C33.3875 14.455 33.2898 14.0935 33.0936 13.809C32.8792 13.5123 32.5914 13.364 32.2306 13.364C31.986 13.364 31.7638 13.4466 31.5652 13.6095C31.3662 13.7738 31.236 13.9883 31.1751 14.254C31.1444 14.378 31.1291 14.4794 31.1291 14.5592V15.3103C31.1291 15.6379 31.2286 15.9144 31.4276 16.1402C31.6266 16.366 31.8851 16.4787 32.2032 16.4787C32.5766 16.4787 32.8672 16.3331 33.075 16.043C33.2833 15.7525 33.3875 15.3694 33.3875 14.8934Z" fill="white"/>
<path d="M39.5278 14.8553C39.5278 15.6214 39.3227 16.227 38.9121 16.6715C38.5453 17.0673 38.0891 17.2649 37.5447 17.2649C36.9569 17.2649 36.5348 17.0518 36.2781 16.6255H36.2595V18.9985H35.2682V14.1413C35.2682 13.6597 35.2556 13.1654 35.2314 12.6584H36.1033L36.1586 13.3724H36.1772C36.5073 12.8344 37.009 12.5659 37.6828 12.5659C38.2086 12.5659 38.648 12.7758 39.0005 13.1959C39.3515 13.6165 39.5278 14.1695 39.5278 14.8553ZM38.5179 14.8919C38.5179 14.4535 38.4197 14.092 38.2235 13.8076C38.0092 13.5109 37.7223 13.3625 37.361 13.3625C37.116 13.3625 36.8942 13.4452 36.6952 13.6081C36.4962 13.7724 36.3664 13.9869 36.3055 14.2526C36.2753 14.3765 36.2595 14.4779 36.2595 14.5577V15.3088C36.2595 15.6365 36.359 15.9129 36.5571 16.1387C36.7561 16.3641 37.0146 16.4772 37.3336 16.4772C37.7069 16.4772 37.9976 16.3317 38.2054 16.0416C38.4137 15.751 38.5179 15.3679 38.5179 14.8919Z" fill="white"/>
<path d="M45.2675 15.411C45.2675 15.9424 45.0848 16.3747 44.7179 16.7085C44.3148 17.0733 43.7536 17.2554 43.0324 17.2554C42.3666 17.2554 41.8328 17.1258 41.4287 16.8662L41.6584 16.0321C42.0936 16.2978 42.5711 16.4311 43.0914 16.4311C43.4648 16.4311 43.7554 16.3456 43.9642 16.1757C44.172 16.0058 44.2757 15.7776 44.2757 15.4932C44.2757 15.2397 44.1902 15.0261 44.0186 14.8529C43.8479 14.6796 43.5629 14.5186 43.1649 14.3698C42.0815 13.9619 41.5403 13.3643 41.5403 12.5785C41.5403 12.0649 41.73 11.6438 42.1099 11.3162C42.4884 10.988 42.9933 10.8242 43.6248 10.8242C44.1878 10.8242 44.6556 10.9233 45.029 11.1209L44.7811 11.9368C44.4324 11.7452 44.0381 11.6495 43.5969 11.6495C43.2481 11.6495 42.9757 11.7363 42.7804 11.9091C42.6153 12.0635 42.5325 12.2518 42.5325 12.4747C42.5325 12.7217 42.6269 12.9259 42.8166 13.0864C42.9817 13.2347 43.2816 13.3953 43.7168 13.5685C44.2492 13.7849 44.6403 14.0379 44.8918 14.328C45.1424 14.6172 45.2675 14.9791 45.2675 15.411Z" fill="white"/>
<path d="M48.5435 13.4096H47.4508V15.5967C47.4508 16.153 47.6433 16.4309 48.0292 16.4309C48.2064 16.4309 48.3533 16.4154 48.4695 16.3844L48.497 17.1444C48.3017 17.2181 48.0445 17.2552 47.726 17.2552C47.3345 17.2552 47.0286 17.1345 46.8077 16.8937C46.5878 16.6524 46.4771 16.2478 46.4771 15.6793V13.4087H45.8262V12.6576H46.4771V11.8328L47.4508 11.5361V12.6576H48.5435V13.4096Z" fill="white"/>
<path d="M53.4743 14.8746C53.4743 15.567 53.278 16.1355 52.8865 16.5801C52.476 17.0378 51.931 17.2659 51.2517 17.2659C50.597 17.2659 50.0758 17.0467 49.6871 16.6082C49.2984 16.1698 49.104 15.6163 49.104 14.9493C49.104 14.2512 49.3039 13.6795 49.7052 13.2349C50.1056 12.7899 50.6458 12.5674 51.3252 12.5674C51.9798 12.5674 52.5067 12.7866 52.9042 13.2255C53.2846 13.6513 53.4743 14.201 53.4743 14.8746ZM52.4457 14.907C52.4457 14.4916 52.3579 14.1353 52.1798 13.8381C51.9719 13.4785 51.6748 13.2992 51.2898 13.2992C50.8913 13.2992 50.5887 13.479 50.3808 13.8381C50.2027 14.1357 50.1149 14.4977 50.1149 14.9258C50.1149 15.3412 50.2027 15.6975 50.3808 15.9942C50.5952 16.3538 50.8946 16.5331 51.281 16.5331C51.6595 16.5331 51.9566 16.35 52.171 15.9848C52.3537 15.682 52.4457 15.322 52.4457 14.907Z" fill="white"/>
<path d="M56.6948 13.5386C56.5967 13.5203 56.4921 13.5109 56.3823 13.5109C56.0336 13.5109 55.7639 13.6437 55.5742 13.9099C55.4091 14.1446 55.3264 14.4413 55.3264 14.7995V17.163H54.3355L54.3448 14.077C54.3448 13.5578 54.3323 13.0851 54.3076 12.6589H55.1711L55.2073 13.5207H55.2348C55.3394 13.2245 55.5045 12.9861 55.7304 12.8072C55.9513 12.6462 56.1898 12.5659 56.447 12.5659C56.5386 12.5659 56.6213 12.5725 56.6948 12.5842V13.5386Z" fill="white"/>
<path d="M61.1298 14.6977C61.1298 14.8771 61.1182 15.0282 61.0935 15.1517H58.1196C58.1312 15.5967 58.2749 15.937 58.5511 16.1717C58.8017 16.3816 59.1258 16.4867 59.5238 16.4867C59.9641 16.4867 60.3659 16.4159 60.7272 16.2736L60.8825 16.9684C60.4603 17.1543 59.9618 17.2467 59.3866 17.2467C58.6948 17.2467 58.1517 17.0411 57.7565 16.6304C57.3622 16.2196 57.1646 15.6681 57.1646 14.9761C57.1646 14.2968 57.3482 13.7312 57.716 13.2801C58.101 12.7984 58.6213 12.5576 59.276 12.5576C59.919 12.5576 60.4059 12.7984 60.7364 13.2801C60.9982 13.6627 61.1298 14.1358 61.1298 14.6977ZM60.1845 14.4381C60.191 14.1415 60.1264 13.8852 59.992 13.6688C59.8205 13.3904 59.5568 13.2514 59.2021 13.2514C58.878 13.2514 58.6143 13.3871 58.413 13.6594C58.2479 13.8758 58.1498 14.1354 58.1196 14.4377H60.1845V14.4381Z" fill="white"/>
<path d="M24.3338 9V6.18H25.4378C25.9178 6.18 26.2898 6.30267 26.5538 6.548C26.8178 6.79067 26.9498 7.13733 26.9498 7.588C26.9498 8.03867 26.8178 8.38667 26.5538 8.632C26.2898 8.87733 25.9178 9 25.4378 9H24.3338ZM24.9538 8.492H25.4018C26.0018 8.492 26.3018 8.19067 26.3018 7.588C26.3018 6.988 26.0018 6.688 25.4018 6.688H24.9538V8.492ZM28.3235 9.044C28.1128 9.044 27.9288 9.00267 27.7715 8.92C27.6168 8.83467 27.4968 8.716 27.4115 8.564C27.3261 8.40933 27.2835 8.22667 27.2835 8.016C27.2835 7.808 27.3261 7.628 27.4115 7.476C27.4968 7.32133 27.6168 7.20267 27.7715 7.12C27.9288 7.03733 28.1128 6.996 28.3235 6.996C28.5341 6.996 28.7168 7.03733 28.8715 7.12C29.0288 7.20267 29.1501 7.32133 29.2355 7.476C29.3235 7.628 29.3675 7.808 29.3675 8.016C29.3675 8.22667 29.3235 8.40933 29.2355 8.564C29.1501 8.716 29.0288 8.83467 28.8715 8.92C28.7168 9.00267 28.5341 9.044 28.3235 9.044ZM28.3235 8.592C28.4515 8.592 28.5555 8.54533 28.6355 8.452C28.7181 8.35867 28.7595 8.21333 28.7595 8.016C28.7595 7.82133 28.7181 7.67867 28.6355 7.588C28.5555 7.49467 28.4515 7.448 28.3235 7.448C28.1955 7.448 28.0915 7.49467 28.0115 7.588C27.9315 7.67867 27.8915 7.82133 27.8915 8.016C27.8915 8.21333 27.9315 8.35867 28.0115 8.452C28.0915 8.54533 28.1955 8.592 28.3235 8.592ZM30.2441 9L29.4441 7.036H30.0561L30.5241 8.296L30.9921 7.036H31.3921L31.8601 8.312L32.3281 7.036H32.9081L32.1161 9H31.6041L31.1721 7.884L30.7521 9H30.2441ZM33.1334 9V7.036H33.7254V7.324C33.792 7.21733 33.8814 7.136 33.9934 7.08C34.1054 7.024 34.2307 6.996 34.3694 6.996C34.6014 6.996 34.7747 7.064 34.8894 7.2C35.004 7.33333 35.0614 7.54 35.0614 7.82V9H34.4574V7.848C34.4574 7.712 34.432 7.61467 34.3814 7.556C34.3307 7.49467 34.256 7.464 34.1574 7.464C34.0294 7.464 33.9267 7.504 33.8494 7.584C33.7747 7.664 33.7374 7.77067 33.7374 7.904V9H33.1334ZM36.2443 9.044C35.9909 9.044 35.8056 8.97867 35.6883 8.848C35.5709 8.71467 35.5123 8.51733 35.5123 8.256V6.18H36.1163V8.232C36.1163 8.44533 36.2109 8.552 36.4003 8.552C36.4296 8.552 36.4576 8.55067 36.4843 8.548C36.5136 8.54533 36.5416 8.54 36.5683 8.532L36.5603 9C36.4589 9.02933 36.3536 9.044 36.2443 9.044ZM37.7688 9.044C37.5581 9.044 37.3741 9.00267 37.2168 8.92C37.0621 8.83467 36.9421 8.716 36.8568 8.564C36.7714 8.40933 36.7288 8.22667 36.7288 8.016C36.7288 7.808 36.7714 7.628 36.8568 7.476C36.9421 7.32133 37.0621 7.20267 37.2168 7.12C37.3741 7.03733 37.5581 6.996 37.7688 6.996C37.9794 6.996 38.1621 7.03733 38.3168 7.12C38.4741 7.20267 38.5954 7.32133 38.6808 7.476C38.7688 7.628 38.8128 7.808 38.8128 8.016C38.8128 8.22667 38.7688 8.40933 38.6808 8.564C38.5954 8.716 38.4741 8.83467 38.3168 8.92C38.1621 9.00267 37.9794 9.044 37.7688 9.044ZM37.7688 8.592C37.8968 8.592 38.0008 8.54533 38.0808 8.452C38.1634 8.35867 38.2048 8.21333 38.2048 8.016C38.2048 7.82133 38.1634 7.67867 38.0808 7.588C38.0008 7.49467 37.8968 7.448 37.7688 7.448C37.6408 7.448 37.5368 7.49467 37.4568 7.588C37.3768 7.67867 37.3368 7.82133 37.3368 8.016C37.3368 8.21333 37.3768 8.35867 37.4568 8.452C37.5368 8.54533 37.6408 8.592 37.7688 8.592ZM39.8442 9.044C39.6976 9.044 39.5682 9.016 39.4562 8.96C39.3442 8.904 39.2549 8.828 39.1882 8.732C39.1242 8.636 39.0922 8.528 39.0922 8.408C39.0922 8.26667 39.1296 8.15333 39.2042 8.068C39.2789 7.98267 39.4002 7.92267 39.5682 7.888C39.7362 7.85067 39.9589 7.832 40.2362 7.832H40.3802V7.764C40.3802 7.64667 40.3536 7.564 40.3002 7.516C40.2469 7.46533 40.1562 7.44 40.0282 7.44C39.9216 7.44 39.8082 7.45733 39.6882 7.492C39.5709 7.524 39.4536 7.57333 39.3362 7.64L39.1722 7.236C39.2416 7.19067 39.3256 7.14933 39.4242 7.112C39.5256 7.07467 39.6309 7.04667 39.7402 7.028C39.8496 7.00667 39.9536 6.996 40.0522 6.996C40.3562 6.996 40.5829 7.06533 40.7322 7.204C40.8816 7.34 40.9562 7.552 40.9562 7.84V9H40.3922V8.704C40.3522 8.808 40.2842 8.89067 40.1882 8.952C40.0949 9.01333 39.9802 9.044 39.8442 9.044ZM39.9802 8.64C40.0922 8.64 40.1869 8.60133 40.2642 8.524C40.3416 8.44667 40.3802 8.34667 40.3802 8.224V8.144H40.2402C40.0349 8.144 39.8896 8.16267 39.8042 8.2C39.7189 8.23467 39.6762 8.296 39.6762 8.384C39.6762 8.45867 39.7016 8.52 39.7522 8.568C39.8056 8.616 39.8816 8.64 39.9802 8.64ZM42.1708 9.044C42.0001 9.044 41.8495 9.00267 41.7188 8.92C41.5908 8.83467 41.4908 8.716 41.4188 8.564C41.3468 8.40933 41.3108 8.22667 41.3108 8.016C41.3108 7.80533 41.3468 7.624 41.4188 7.472C41.4908 7.32 41.5908 7.20267 41.7188 7.12C41.8495 7.03733 42.0001 6.996 42.1708 6.996C42.3015 6.996 42.4215 7.024 42.5308 7.08C42.6401 7.136 42.7228 7.21067 42.7788 7.304V6.18H43.3828V9H42.7908V8.704C42.7375 8.808 42.6548 8.89067 42.5428 8.952C42.4335 9.01333 42.3095 9.044 42.1708 9.044ZM42.3508 8.592C42.4788 8.592 42.5828 8.54533 42.6628 8.452C42.7455 8.35867 42.7868 8.21333 42.7868 8.016C42.7868 7.82133 42.7455 7.67867 42.6628 7.588C42.5828 7.49467 42.4788 7.448 42.3508 7.448C42.2228 7.448 42.1188 7.49467 42.0388 7.588C41.9588 7.67867 41.9188 7.82133 41.9188 8.016C41.9188 8.21333 41.9588 8.35867 42.0388 8.452C42.1188 8.54533 42.2228 8.592 42.3508 8.592ZM45.9055 9.044C45.6948 9.044 45.5108 9.00267 45.3535 8.92C45.1988 8.83467 45.0788 8.716 44.9935 8.564C44.9082 8.40933 44.8655 8.22667 44.8655 8.016C44.8655 7.808 44.9082 7.628 44.9935 7.476C45.0788 7.32133 45.1988 7.20267 45.3535 7.12C45.5108 7.03733 45.6948 6.996 45.9055 6.996C46.1162 6.996 46.2988 7.03733 46.4535 7.12C46.6108 7.20267 46.7322 7.32133 46.8175 7.476C46.9055 7.628 46.9495 7.808 46.9495 8.016C46.9495 8.22667 46.9055 8.40933 46.8175 8.564C46.7322 8.716 46.6108 8.83467 46.4535 8.92C46.2988 9.00267 46.1162 9.044 45.9055 9.044ZM45.9055 8.592C46.0335 8.592 46.1375 8.54533 46.2175 8.452C46.3002 8.35867 46.3415 8.21333 46.3415 8.016C46.3415 7.82133 46.3002 7.67867 46.2175 7.588C46.1375 7.49467 46.0335 7.448 45.9055 7.448C45.7775 7.448 45.6735 7.49467 45.5935 7.588C45.5135 7.67867 45.4735 7.82133 45.4735 8.016C45.4735 8.21333 45.5135 8.35867 45.5935 8.452C45.6735 8.54533 45.7775 8.592 45.9055 8.592ZM47.317 9V7.036H47.909V7.324C47.9756 7.21733 48.065 7.136 48.177 7.08C48.289 7.024 48.4143 6.996 48.553 6.996C48.785 6.996 48.9583 7.064 49.073 7.2C49.1876 7.33333 49.245 7.54 49.245 7.82V9H48.641V7.848C48.641 7.712 48.6156 7.61467 48.565 7.556C48.5143 7.49467 48.4396 7.464 48.341 7.464C48.213 7.464 48.1103 7.504 48.033 7.584C47.9583 7.664 47.921 7.77067 47.921 7.904V9H47.317ZM51.7731 9.044C51.2211 9.044 50.9451 8.776 50.9451 8.24V7.488H50.5731V7.036H50.9451V6.46H51.5491V7.036H52.1291V7.488H51.5491V8.216C51.5491 8.328 51.5745 8.412 51.6251 8.468C51.6785 8.524 51.7625 8.552 51.8771 8.552C51.9118 8.552 51.9478 8.548 51.9851 8.54C52.0251 8.532 52.0678 8.52133 52.1131 8.508L52.2011 8.948C52.1451 8.97733 52.0785 9 52.0011 9.016C51.9238 9.03467 51.8478 9.044 51.7731 9.044ZM52.4263 9V6.18H53.0303V7.304C53.0997 7.20267 53.189 7.12667 53.2983 7.076C53.4077 7.02267 53.529 6.996 53.6623 6.996C54.1237 6.996 54.3543 7.27067 54.3543 7.82V9H53.7503V7.848C53.7503 7.712 53.725 7.61467 53.6743 7.556C53.6237 7.49467 53.549 7.464 53.4503 7.464C53.3223 7.464 53.2197 7.504 53.1423 7.584C53.0677 7.664 53.0303 7.77067 53.0303 7.904V9H52.4263ZM55.8252 9.044C55.5932 9.044 55.3932 9.00267 55.2252 8.92C55.0599 8.83467 54.9319 8.716 54.8412 8.564C54.7532 8.40933 54.7092 8.228 54.7092 8.02C54.7092 7.81733 54.7519 7.64 54.8372 7.488C54.9252 7.33333 55.0439 7.21333 55.1932 7.128C55.3452 7.04 55.5199 6.996 55.7172 6.996C56.0026 6.996 56.2292 7.08667 56.3972 7.268C56.5652 7.44667 56.6492 7.68933 56.6492 7.996V8.148H55.2852C55.3066 8.30267 55.3626 8.416 55.4532 8.488C55.5466 8.55733 55.6746 8.592 55.8372 8.592C55.9439 8.592 56.0519 8.576 56.1612 8.544C56.2706 8.512 56.3692 8.46267 56.4572 8.396L56.6172 8.8C56.5186 8.87467 56.3972 8.93467 56.2532 8.98C56.1119 9.02267 55.9692 9.044 55.8252 9.044ZM55.7412 7.396C55.6132 7.396 55.5092 7.43467 55.4292 7.512C55.3519 7.58933 55.3039 7.69733 55.2852 7.836H56.1492C56.1332 7.54267 55.9972 7.396 55.7412 7.396Z" fill="white"/>
</svg>
