<svg width="99" height="24" viewBox="0 0 99 24" fill="none" xmlns="http://www.w3.org/2000/svg">
<path d="M12.0001 6.06832C13.3077 6.06832 14.3677 5.00838 14.3677 3.70108C14.3677 2.39345 13.3077 1.3335 12.0001 1.3335C10.6924 1.3335 9.63281 2.39345 9.63281 3.70108C9.63281 5.00871 10.6927 6.06832 12.0001 6.06832Z" fill="#185DE7"/>
<path d="M2.36758 11.7304C3.67521 11.7304 4.73517 10.6705 4.73517 9.36281C4.73517 8.05521 3.67521 6.99561 2.36758 6.99561C1.05995 6.99561 0 8.05554 0 9.36281C0 10.6705 1.05995 11.7304 2.36758 11.7304Z" fill="#FF8800"/>
<path d="M21.6329 11.731C22.9406 11.731 24.0005 10.671 24.0005 9.36336C24.0005 8.05576 22.9406 6.99609 21.6329 6.99609C20.3253 6.99609 19.2656 8.05609 19.2656 9.36336C19.2656 10.671 20.3256 11.731 21.6329 11.731Z" fill="#17BAA7"/>
<path d="M4.40184 19.3064C3.47738 18.382 3.47738 16.883 4.40184 15.9585C5.32663 15.034 6.82536 15.034 7.74983 15.9585C8.67429 16.883 8.67429 18.382 7.74983 19.3064C6.82503 20.2309 5.3263 20.2312 4.40184 19.3064Z" fill="#964DDE"/>
<path d="M16.2222 19.3602C15.2977 18.4357 15.2977 16.9367 16.2222 16.0122C17.147 15.0877 18.6457 15.0877 19.5701 16.0122C20.4946 16.9367 20.4946 18.4357 19.5701 19.3602C18.6454 20.2847 17.1466 20.285 16.2222 19.3602Z" fill="#3495EF"/>
<path fill-rule="evenodd" clip-rule="evenodd" d="M5.9027 8.3271C5.97993 8.5911 6.27488 8.74757 6.52056 8.62437L9.43577 7.1643C9.71637 7.02384 9.7367 6.62133 9.50597 6.40894C9.4687 6.37465 9.4321 6.3397 9.39617 6.30374C8.7297 5.63728 8.31757 4.71648 8.31757 3.70014C8.31757 3.40552 8.0053 3.17416 7.74197 3.30598L4.0854 5.13726L4.04978 5.15524C3.70024 5.33001 3.76881 5.93322 4.11236 6.11865C4.42962 6.28976 4.71857 6.50582 4.97124 6.7585C5.40202 7.18924 5.72692 7.72624 5.90303 8.32677L5.9027 8.3271Z" fill="#185DE7"/>
<path fill-rule="evenodd" clip-rule="evenodd" d="M8.17764 11.4251C8.17764 11.1221 8.00651 10.8452 7.73551 10.7097L6.51979 10.1011C6.27411 9.97833 5.97916 10.1348 5.90193 10.3988C5.72616 10.9993 5.40158 11.5363 4.97047 11.9671C4.56933 12.3685 4.07531 12.6778 3.52402 12.8602C3.24738 12.9518 3.10024 13.2823 3.25937 13.5263L3.74341 14.2681C3.86691 14.4575 4.12225 14.5047 4.32065 14.3965C4.86661 14.0993 5.47115 13.9501 6.07503 13.9501C6.5624 13.9501 7.04977 14.047 7.50651 14.2404C7.80444 14.3666 8.17731 14.1675 8.17731 13.8436V11.4251H8.17764Z" fill="#FF8800"/>
<path fill-rule="evenodd" clip-rule="evenodd" d="M16.2652 10.6994C15.9936 10.8349 15.8218 11.1122 15.8218 11.4158L15.8221 13.8866C15.8221 14.2085 16.1913 14.4076 16.4886 14.2841C16.9386 14.0973 17.4177 14.0038 17.8961 14.0038C18.507 14.0038 19.1185 14.1559 19.6694 14.4602C19.8715 14.5717 20.1332 14.5214 20.2554 14.3254L20.7567 13.5198C20.9085 13.2757 20.7604 12.9532 20.4874 12.8639C19.9318 12.6818 19.4344 12.3712 19.03 11.9674C18.5975 11.5353 18.2722 10.996 18.0972 10.3932C18.0206 10.1292 17.726 9.97204 17.48 10.0945L16.2649 10.6994H16.2652Z" fill="#3495EF"/>
<path fill-rule="evenodd" clip-rule="evenodd" d="M14.4922 6.4121C14.2608 6.62482 14.2811 7.0283 14.5621 7.16877L17.48 8.6289C17.726 8.75204 18.0209 8.5949 18.0978 8.3309C18.2732 7.72904 18.5985 7.19077 19.0299 6.75897C19.2816 6.50731 19.5696 6.29159 19.8855 6.12081C20.229 5.93539 20.2966 5.33218 19.9474 5.15774L19.9068 5.13743L16.2536 3.30948C15.9929 3.17898 15.6833 3.40835 15.6833 3.69964C15.6833 4.71631 15.2712 5.63711 14.6047 6.30358C14.5677 6.34053 14.5308 6.37682 14.4922 6.4121Z" fill="#17BAA7"/>
<path fill-rule="evenodd" clip-rule="evenodd" d="M14.2415 17.2306L12.3639 18.1718C12.1386 18.2846 11.8733 18.2846 11.6479 18.1721L10.1082 17.4024C9.94739 17.3218 9.75766 17.4527 9.75766 17.6324C9.75766 18.5749 9.39812 19.517 8.67906 20.2364C8.58986 20.3253 8.49766 20.4088 8.40212 20.4868C8.14746 20.6952 8.15372 21.1296 8.44806 21.2764L10.4128 22.2588C10.9115 22.5128 11.4581 22.6386 12.0004 22.6386C12.5424 22.6386 13.0887 22.5128 13.5867 22.2661L15.4989 21.3074C15.7908 21.1608 15.7991 20.7321 15.5478 20.5234C15.4603 20.4508 15.3757 20.3736 15.2938 20.2916C15.2928 20.2906 15.2921 20.289 15.2921 20.2874C15.2921 20.2857 15.2915 20.2844 15.2901 20.283C14.5724 19.564 14.2132 18.6242 14.2132 17.686C14.2132 17.5336 14.2225 17.3814 14.2415 17.2303C14.2415 17.2303 14.2415 17.23 14.2411 17.23L14.2415 17.2306Z" fill="#964DDE"/>
<path fill-rule="evenodd" clip-rule="evenodd" d="M39.5534 14.391C39.5534 14.9243 39.4177 15.4143 39.1464 15.8619C38.8751 16.3096 38.4751 16.6662 37.9471 16.9328C37.4188 17.1995 36.7786 17.3328 36.0266 17.3328C34.8936 17.3328 33.961 17.0568 33.2281 16.5046C32.4952 15.9526 32.0952 15.1813 32.0288 14.1914H34.6274C34.6653 14.5724 34.8013 14.872 35.0343 15.091C35.2676 15.31 35.565 15.4193 35.9269 15.4193C36.2412 15.4193 36.4886 15.3336 36.6696 15.1623C36.8505 14.991 36.9405 14.7623 36.9405 14.477C36.9405 14.22 36.8572 14.006 36.6909 13.8344C36.5242 13.663 36.3172 13.5228 36.0699 13.4134C35.8222 13.3038 35.4796 13.1731 35.042 13.0204C34.404 12.8018 33.8827 12.5898 33.4784 12.3852C33.0738 12.1805 32.7264 11.8758 32.4362 11.4712C32.1458 11.0666 32.0005 10.5406 32.0005 9.8933C32.0005 9.2937 32.1528 8.7747 32.4575 8.3367C32.7621 7.8991 33.1834 7.56344 33.721 7.3301C34.259 7.09717 34.8753 6.98017 35.5703 6.98017C36.6936 6.98017 37.5858 7.24677 38.2474 7.77977C38.9091 8.31304 39.2827 9.0457 39.3684 9.97864H36.7269C36.6792 9.6453 36.5579 9.3813 36.3626 9.18637C36.1676 8.99104 35.9032 8.8937 35.5703 8.8937C35.2846 8.8937 35.0536 8.9697 34.8776 9.12204C34.7016 9.27437 34.6137 9.49797 34.6137 9.79297C34.6137 10.031 34.692 10.2333 34.849 10.3996C35.0063 10.5662 35.2036 10.7019 35.4416 10.8066C35.6796 10.9112 36.0222 11.0446 36.4699 11.2066C37.1168 11.4256 37.6455 11.6422 38.0548 11.8562C38.4641 12.0705 38.8164 12.3822 39.1114 12.7914C39.4064 13.2011 39.554 13.734 39.554 14.3907L39.5534 14.391ZM90.4145 9.16504C91.0232 9.16504 91.5465 9.30304 91.9845 9.5793C92.4225 9.85564 92.7411 10.2316 92.9411 10.7072V6.6665H95.3832V17.2325H92.9411V15.7902C92.7411 16.2662 92.4225 16.6422 91.9845 16.9185C91.5465 17.1945 91.0232 17.3328 90.4145 17.3328C89.7572 17.3328 89.1692 17.1685 88.6505 16.8402C88.1318 16.5119 87.7225 16.0382 87.4225 15.4193C87.1231 14.8006 86.9732 14.077 86.9732 13.2491C86.9732 12.4115 87.1231 11.6855 87.4225 11.0719C87.7225 10.4579 88.1318 9.98664 88.6505 9.6583C89.1698 9.33004 89.7572 9.1657 90.4145 9.1657V9.16504ZM91.1992 11.3069C90.6765 11.3069 90.2545 11.4782 89.9358 11.8208C89.6172 12.1635 89.4578 12.6394 89.4578 13.2488C89.4578 13.858 89.6172 14.334 89.9358 14.6767C90.2551 15.0193 90.6765 15.1906 91.1992 15.1906C91.7138 15.1906 92.1345 15.0146 92.4632 14.6624C92.7912 14.3104 92.9558 13.839 92.9558 13.2488C92.9558 12.6491 92.7912 12.1755 92.4632 11.8282C92.1345 11.4809 91.7132 11.3069 91.1992 11.3069ZM83.6178 10.7642C83.9225 10.2786 84.3151 9.8933 84.7958 9.60764C85.2765 9.32204 85.7971 9.17937 86.3591 9.17937V11.7922H85.6592C85.0125 11.7922 84.5105 11.9302 84.1532 12.2065C83.7958 12.4825 83.6178 12.9491 83.6178 13.6057V17.2325H81.1758V9.26504H83.6178V10.7642ZM79.9052 13.0344C79.9052 13.2344 79.8818 13.4534 79.8338 13.691H74.3078C74.3365 14.2907 74.4892 14.7217 74.7645 14.9833C75.0405 15.245 75.3932 15.376 75.8212 15.376C76.1832 15.376 76.4832 15.2856 76.7205 15.1043C76.9585 14.9236 77.1158 14.6903 77.1918 14.405H79.7765C79.6718 14.9666 79.4432 15.4686 79.0912 15.9112C78.7392 16.3539 78.2912 16.7012 77.7485 16.9538C77.2058 17.2062 76.6018 17.3322 75.9352 17.3322C75.1545 17.3322 74.4625 17.1678 73.8578 16.8395C73.2538 16.5112 72.7798 16.0376 72.4372 15.4186C72.0945 14.8 71.9232 14.0764 71.9232 13.2484C71.9232 12.4108 72.0925 11.6848 72.4298 11.0712C72.7678 10.4572 73.2418 9.98597 73.8512 9.65764C74.4605 9.32937 75.1545 9.16504 75.9352 9.16504C76.7252 9.16504 77.4205 9.32704 78.0198 9.65064C78.6198 9.9743 79.0838 10.4289 79.4125 11.0142C79.7405 11.5995 79.9052 12.2728 79.9052 13.0344ZM77.4352 12.6631C77.4445 12.1398 77.3038 11.7468 77.0138 11.4852C76.7238 11.2236 76.3645 11.0926 75.9358 11.0926C75.4885 11.0926 75.1172 11.2259 74.8225 11.4926C74.5272 11.7588 74.3612 12.1492 74.3225 12.6634H77.4352V12.6631ZM67.7398 9.17937C68.6538 9.17937 69.3798 9.48397 69.9172 10.093C70.4552 10.7022 70.7238 11.5398 70.7238 12.6061V17.2325H68.2825V12.8918C68.2825 12.3585 68.1418 11.9422 67.8605 11.6425C67.5798 11.3426 67.2065 11.1926 66.7398 11.1926C66.2452 11.1926 65.8525 11.3499 65.5618 11.6638C65.2718 11.9782 65.1265 12.4255 65.1265 13.0061V17.2325H62.6849V9.26504H65.1265V10.7212C65.3545 10.2453 65.6952 9.8693 66.1472 9.59297C66.5998 9.31704 67.1305 9.17904 67.7398 9.17904V9.17937ZM56.0313 9.16504C56.6406 9.16504 57.1639 9.30304 57.6019 9.5793C58.0396 9.85564 58.3632 10.2316 58.5728 10.7072V9.26537H61.0004V17.2328H58.5728V15.7906C58.3632 16.2666 58.0396 16.6426 57.6019 16.9188C57.1639 17.1948 56.6403 17.3332 56.0313 17.3332C55.3747 17.3332 54.7864 17.1688 54.2678 16.8406C53.7492 16.5122 53.3398 16.0386 53.0398 15.4196C52.7402 14.801 52.5902 14.0774 52.5902 13.2494C52.5902 12.4118 52.7402 11.6858 53.0398 11.0722C53.3398 10.4582 53.7492 9.98697 54.2678 9.65864C54.7864 9.3303 55.3744 9.16604 56.0313 9.16604V9.16504ZM56.8166 11.3069C56.2933 11.3069 55.8717 11.4782 55.553 11.8208C55.234 12.1635 55.0747 12.6394 55.0747 13.2488C55.0747 13.858 55.234 14.334 55.553 14.6767C55.8717 15.0193 56.2933 15.1906 56.8166 15.1906C57.3306 15.1906 57.7519 15.0146 58.0802 14.6624C58.4085 14.3104 58.5728 13.839 58.5728 13.2488C58.5728 12.6491 58.4085 12.1755 58.0802 11.8282C57.7516 11.4809 57.3306 11.3069 56.8166 11.3069ZM49.2344 10.7642C49.5391 10.2786 49.9317 9.8933 50.4124 9.60764C50.8933 9.32204 51.4143 9.17937 51.9759 9.17937V11.7922H51.2763C50.6287 11.7922 50.1267 11.9302 49.7697 12.2065C49.4131 12.4825 49.2344 12.9491 49.2344 13.6057V17.2325H46.7929V9.26504H49.2344V10.7642ZM45.4223 15.1333V17.2325H44.3227C43.3898 17.2325 42.6638 17.0015 42.1452 16.5399C41.6266 16.0782 41.3672 15.3143 41.3672 14.248V11.3212H40.2963V9.26504H41.3672V7.30877H43.8088V9.26504H45.408V11.3212H43.8088V14.291C43.8088 14.6054 43.8731 14.8243 44.0014 14.9476C44.1301 15.0713 44.3464 15.1333 44.6514 15.1333H45.4223Z" fill="#05090D"/>
</svg>
