<svg width="72" height="24" viewBox="0 0 72 24" fill="none" xmlns="http://www.w3.org/2000/svg">
<rect width="72.0001" height="24" rx="4" fill="#1E2230"/>
<path d="M35.81 13.4161C34.7273 13.4161 33.8428 14.226 33.8428 15.3433C33.8428 16.4516 34.7273 17.2699 35.81 17.2699C36.8949 17.2699 37.7794 16.4516 37.7794 15.3433C37.7794 14.226 36.8949 13.4161 35.81 13.4161ZM35.81 16.511C35.2159 16.511 34.7048 16.0291 34.7048 15.3433C34.7048 14.6484 35.2159 14.175 35.81 14.175C36.404 14.175 36.9174 14.6484 36.9174 15.3433C36.9174 16.0291 36.404 16.511 35.81 16.511ZM31.5179 13.4161C30.4329 13.4161 29.5507 14.226 29.5507 15.3433C29.5507 16.4516 30.4329 17.2699 31.5179 17.2699C32.6023 17.2699 33.485 16.4516 33.485 15.3433C33.485 14.226 32.6023 13.4161 31.5179 13.4161ZM31.5179 16.511C30.9232 16.511 30.4104 16.0291 30.4104 15.3433C30.4104 14.6484 30.9232 14.175 31.5179 14.175C32.1119 14.175 32.623 14.6484 32.623 15.3433C32.623 16.0291 32.1119 16.511 31.5179 16.511ZM26.4105 14.0068V14.8257H28.4001C28.3419 15.2833 28.1863 15.6197 27.9478 15.8541C27.6573 16.1373 27.205 16.4516 26.4105 16.4516C25.186 16.4516 24.2272 15.4803 24.2272 14.2769C24.2272 13.0735 25.186 12.1023 26.4105 12.1023C27.0725 12.1023 27.5542 12.3565 27.9097 12.6861L28.4969 12.1091C27.9996 11.6424 27.3381 11.2839 26.4105 11.2839C24.7314 11.2839 23.3203 12.6267 23.3203 14.2769C23.3203 15.9272 24.7314 17.2699 26.4105 17.2699C27.318 17.2699 27.9996 16.9777 28.5355 16.4295C29.0846 15.8898 29.2557 15.1309 29.2557 14.5182C29.2557 14.3279 29.2396 14.1529 29.2108 14.0068H26.4105ZM47.2953 14.6416C47.1334 14.2107 46.6338 13.4161 45.6163 13.4161C44.6079 13.4161 43.7684 14.1971 43.7684 15.3433C43.7684 16.4227 44.5993 17.2699 45.7131 17.2699C46.6137 17.2699 47.1334 16.7302 47.3472 16.4159L46.6788 15.9781C46.4558 16.2987 46.1521 16.511 45.7131 16.511C45.2769 16.511 44.964 16.3145 44.7635 15.9272L47.3858 14.8608L47.2953 14.6416ZM44.6218 15.2833C44.5993 14.5403 45.2089 14.1597 45.6457 14.1597C45.9879 14.1597 46.2783 14.3279 46.3751 14.5686L44.6218 15.2833ZM42.4904 17.1527H43.3524V11.4895H42.4904V17.1527ZM41.0787 13.8454H41.0499C40.8563 13.62 40.487 13.4161 40.0191 13.4161C39.0372 13.4161 38.1395 14.2633 38.1395 15.3495C38.1395 16.4295 39.0372 17.2699 40.0191 17.2699C40.487 17.2699 40.8563 17.0643 41.0499 16.8321H41.0787V17.1085C41.0787 17.8453 40.6783 18.2411 40.0323 18.2411C39.5057 18.2411 39.179 17.8674 39.0442 17.5531L38.2945 17.8606C38.5106 18.3714 39.0828 19 40.0323 19C41.043 19 41.8958 18.4156 41.8958 16.9935V13.5334H41.0787V13.8454ZM40.0928 16.511C39.4988 16.511 39.0015 16.0223 39.0015 15.3495C39.0015 14.6705 39.4988 14.175 40.0928 14.175C40.6783 14.175 41.1398 14.6705 41.1398 15.3495C41.1398 16.0223 40.6783 16.511 40.0928 16.511ZM51.331 11.4895H49.2694V17.1527H50.129V15.0069H51.331C52.2857 15.0069 53.2221 14.3279 53.2221 13.2479C53.2221 12.1685 52.2834 11.4895 51.331 11.4895ZM51.3535 14.2192H50.129V12.2773H51.3535C51.9953 12.2773 52.3618 12.8011 52.3618 13.2479C52.3618 13.6863 51.9953 14.2192 51.3535 14.2192ZM56.6677 13.4054C56.0466 13.4054 55.4007 13.6749 55.135 14.2724L55.8979 14.5867C56.0621 14.2724 56.3641 14.1705 56.6833 14.1705C57.1293 14.1705 57.5816 14.4338 57.5885 14.8987V14.9582C57.4329 14.8699 57.0999 14.739 56.6902 14.739C55.8685 14.739 55.0313 15.1836 55.0313 16.0132C55.0313 16.7721 55.7043 17.2608 56.4609 17.2608C57.0394 17.2608 57.3586 17.0043 57.5591 16.7059H57.5885V17.1436H58.4188V14.9712C58.4188 13.9671 57.6559 13.4054 56.6677 13.4054ZM56.564 16.5088C56.2828 16.5088 55.891 16.3717 55.891 16.0291C55.891 15.5908 56.3796 15.4226 56.8026 15.4226C57.1811 15.4226 57.3586 15.5047 57.5885 15.6129C57.5211 16.1373 57.0618 16.5088 56.564 16.5088ZM61.4438 13.5294L60.4557 15.9844H60.4263L59.4047 13.5294H58.4776L60.0126 16.9601L59.1367 18.8692H60.035L62.4003 13.5294H61.4438ZM53.6945 17.1527H54.5565V11.4895H53.6945V17.1527Z" fill="white"/>
<path d="M9.21377 7.15494C9.07836 7.29425 9 7.51115 9 7.79204V17.8113C9 18.0922 9.07836 18.3091 9.21377 18.4484L9.24719 18.479L14.9596 12.8668V12.7343L9.24719 7.12209L9.21377 7.15494Z" fill="url(#paint0_linear_2037_9297)"/>
<path d="M16.86 14.7383L14.958 12.8666V12.7341L16.8623 10.8624L16.905 10.8868L19.1602 12.1479C19.8038 12.5059 19.8038 13.0948 19.1602 13.455L16.905 14.7139L16.86 14.7383Z" fill="url(#paint1_linear_2037_9297)"/>
<path d="M16.9072 14.7141L14.9602 12.8005L9.21436 18.4484C9.42812 18.6692 9.77672 18.6959 10.1731 18.475L16.9072 14.7141Z" fill="url(#paint2_linear_2037_9297)"/>
<path d="M16.9072 10.8882L10.1731 7.12726C9.77672 6.90867 9.42812 6.93528 9.21436 7.15615L14.9602 12.8018L16.9072 10.8882Z" fill="url(#paint3_linear_2037_9297)"/>
<path d="M26.242 9.044C25.9247 9.044 25.6553 8.984 25.434 8.864C25.2153 8.744 25.0487 8.576 24.934 8.36C24.8193 8.144 24.762 7.89067 24.762 7.6C24.762 7.30133 24.8207 7.04267 24.938 6.824C25.058 6.60533 25.23 6.436 25.454 6.316C25.678 6.196 25.9473 6.136 26.262 6.136C26.4593 6.136 26.646 6.164 26.822 6.22C27.0007 6.276 27.146 6.35067 27.258 6.444L27.058 6.928C26.9353 6.83733 26.81 6.77333 26.682 6.736C26.554 6.696 26.4153 6.676 26.266 6.676C25.9807 6.676 25.766 6.756 25.622 6.916C25.4807 7.07333 25.41 7.30133 25.41 7.6C25.41 7.90133 25.482 8.12933 25.626 8.284C25.7727 8.43867 25.9887 8.516 26.274 8.516C26.426 8.516 26.586 8.492 26.754 8.444V7.892H26.146V7.444H27.266V8.828C27.1273 8.89733 26.9673 8.95067 26.786 8.988C26.6047 9.02533 26.4233 9.044 26.242 9.044ZM27.8148 9V6.18H29.7468V6.664H28.4068V7.324H29.6588V7.812H28.4068V8.516H29.7468V9H27.8148ZM30.9086 9V6.692H29.9766V6.18H32.4606V6.692H31.5286V9H30.9086ZM33.8773 9V6.18H34.4973V9H33.8773ZM35.7329 9V6.692H34.8009V6.18H37.2849V6.692H36.3529V9H35.7329ZM40.0095 9.044C39.7321 9.044 39.4881 8.984 39.2775 8.864C39.0695 8.74133 38.9068 8.572 38.7895 8.356C38.6748 8.13733 38.6175 7.88133 38.6175 7.588C38.6175 7.29467 38.6748 7.04 38.7895 6.824C38.9068 6.60533 39.0695 6.436 39.2775 6.316C39.4855 6.196 39.7295 6.136 40.0095 6.136C40.2895 6.136 40.5335 6.196 40.7415 6.316C40.9521 6.436 41.1148 6.60533 41.2295 6.824C41.3468 7.04 41.4055 7.29333 41.4055 7.584C41.4055 7.87733 41.3468 8.13333 41.2295 8.352C41.1148 8.57067 40.9521 8.74133 40.7415 8.864C40.5335 8.984 40.2895 9.044 40.0095 9.044ZM40.0095 8.516C40.2441 8.516 40.4268 8.43467 40.5575 8.272C40.6908 8.10667 40.7575 7.87867 40.7575 7.588C40.7575 7.29467 40.6921 7.068 40.5615 6.908C40.4308 6.74533 40.2468 6.664 40.0095 6.664C39.7775 6.664 39.5948 6.74533 39.4615 6.908C39.3308 7.068 39.2655 7.29467 39.2655 7.588C39.2655 7.87867 39.3308 8.10667 39.4615 8.272C39.5948 8.43467 39.7775 8.516 40.0095 8.516ZM41.8851 9V6.18H42.3451L43.7531 7.976V6.18H44.3291V9H43.8731L42.4611 7.2V9H41.8851Z" fill="white"/>
<defs>
<linearGradient id="paint0_linear_2037_9297" x1="14.4524" y1="17.9157" x2="6.85023" y2="10.1808" gradientUnits="userSpaceOnUse">
<stop stop-color="#00A0FF"/>
<stop offset="0.0066" stop-color="#00A1FF"/>
<stop offset="0.2601" stop-color="#00BEFF"/>
<stop offset="0.5122" stop-color="#00D2FF"/>
<stop offset="0.7604" stop-color="#00DFFF"/>
<stop offset="1" stop-color="#00E3FF"/>
</linearGradient>
<linearGradient id="paint1_linear_2037_9297" x1="19.9983" y1="12.7997" x2="8.84455" y2="12.7997" gradientUnits="userSpaceOnUse">
<stop stop-color="#FFE000"/>
<stop offset="0.4087" stop-color="#FFBD00"/>
<stop offset="0.7754" stop-color="#FFA500"/>
<stop offset="1" stop-color="#FF9C00"/>
</linearGradient>
<linearGradient id="paint2_linear_2037_9297" x1="15.8485" y1="11.7602" x2="5.53929" y2="1.27118" gradientUnits="userSpaceOnUse">
<stop stop-color="#FF3A44"/>
<stop offset="1" stop-color="#C31162"/>
</linearGradient>
<linearGradient id="paint3_linear_2037_9297" x1="7.76801" y1="21.783" x2="12.3715" y2="17.0992" gradientUnits="userSpaceOnUse">
<stop stop-color="#32A071"/>
<stop offset="0.0685" stop-color="#2DA771"/>
<stop offset="0.4762" stop-color="#15CF74"/>
<stop offset="0.8009" stop-color="#06E775"/>
<stop offset="1" stop-color="#00F076"/>
</linearGradient>
</defs>
</svg>
