<svg width="16" height="16" viewBox="0 0 16 16" fill="none" xmlns="http://www.w3.org/2000/svg">
<path d="M15.5 3.42188C14.9373 3.66637 14.342 3.82744 13.7328 3.90001C14.373 3.52512 14.8545 2.92956 15.0869 2.22501C14.4816 2.57894 13.8205 2.82728 13.1319 2.95938C12.8419 2.65548 12.4932 2.41373 12.1069 2.2488C11.7205 2.08388 11.3047 1.99923 10.8847 2.00001C9.18406 2.00001 7.80781 3.35626 7.80781 5.02813C7.80661 5.26068 7.83325 5.49254 7.88719 5.71876C6.66772 5.66159 5.4736 5.3505 4.38124 4.8054C3.28889 4.26029 2.32234 3.49318 1.54344 2.55313C1.27018 3.01379 1.12567 3.53939 1.125 4.07501C1.125 5.12501 1.67281 6.05313 2.5 6.59688C2.00991 6.58525 1.52987 6.45554 1.10063 6.21876V6.25626C1.10063 7.72501 2.16313 8.94688 3.56938 9.22501C3.30493 9.2955 3.03243 9.33122 2.75875 9.33126C2.56456 9.33159 2.3708 9.31275 2.18031 9.275C2.57125 10.4781 3.70906 11.3531 5.05688 11.3781C3.96168 12.2222 2.61707 12.6784 1.23438 12.675C0.988943 12.6746 0.743739 12.66 0.5 12.6313C1.90662 13.5294 3.5417 14.0045 5.21063 14C10.8781 14 13.9744 9.38438 13.9744 5.38126C13.9744 5.25001 13.9709 5.11876 13.9647 4.99063C14.5657 4.56315 15.0856 4.03191 15.5 3.42188Z" fill="#1E2230"/>
</svg>
