<svg width="16" height="16" viewBox="0 0 16 16" fill="none" xmlns="http://www.w3.org/2000/svg">
<g clip-path="url(#clip0_2037_9212)">
<path d="M15.8952 4.64969C15.8952 3.24344 14.8608 2.11219 13.5827 2.11219C11.8514 2.03125 10.0858 2 8.28144 2H7.71894C5.91894 2 4.15019 2.03125 2.41894 2.1125C1.14394 2.1125 0.109565 3.25 0.109565 4.65625C0.03144 5.76844 -0.00168497 6.88094 0.000190034 7.99344C-0.00293497 9.10594 0.0324817 10.2195 0.10644 11.3341C0.10644 12.7403 1.14082 13.8809 2.41582 13.8809C4.23457 13.9653 6.10019 14.0028 7.99707 13.9997C9.89707 14.0059 11.7575 13.9664 13.5783 13.8809C14.8564 13.8809 15.8908 12.7403 15.8908 11.3341C15.9658 10.2184 16.0002 9.10594 15.9971 7.99031C16.0041 6.87781 15.9702 5.76427 15.8952 4.64969ZM6.46894 11.0591V4.91844L11.0002 7.98719L6.46894 11.0591Z" fill="#1E2230"/>
</g>
<defs>
<clipPath id="clip0_2037_9212">
<rect width="16" height="16" fill="white"/>
</clipPath>
</defs>
</svg>
